<svg id="date_range-24px" xmlns="http://www.w3.org/2000/svg" width="33.063" height="31.934" viewBox="0 0 33.063 31.934">
  <path id="Path_10" data-name="Path 10" d="M10.485,13.188H7.99v2.486h2.495Zm4.99,0H12.98v2.486h2.495Zm4.99,0H17.969v2.486h2.495Zm2.495-8.7H21.712V2H19.217V4.486H9.237V2H6.742V4.486H5.495A2.479,2.479,0,0,0,3.012,6.972L3,24.375a2.49,2.49,0,0,0,2.495,2.486H22.959a2.5,2.5,0,0,0,2.495-2.486V6.972A2.5,2.5,0,0,0,22.959,4.486Zm0,19.889H5.495V10.7H22.959Z" transform="translate(2.304 1.536)" fill="#b7b7b7"/>
  <path id="Path_11" data-name="Path 11" d="M0,0H33.063V31.934H0Z" fill="none"/>
</svg>
