<svg xmlns="http://www.w3.org/2000/svg" width="802.321" height="541" viewBox="0 0 802.321 541">
  <g id="Group_17" data-name="Group 17" transform="translate(-124 -291)">
    <g id="Group_10" data-name="Group 10" transform="translate(280.153 708.287)" opacity="0.95">
      <rect id="Rectangle_8" data-name="Rectangle 8" width="23.402" height="5.95" transform="translate(0 8.726)" fill="#008e9c"/>
      <rect id="Rectangle_9" data-name="Rectangle 9" width="23.402" height="5.95" transform="translate(14.676) rotate(90)" fill="#008e9c"/>
    </g>
    <g id="Group_16" data-name="Group 16">
      <g id="Group_11" data-name="Group 11" transform="translate(240.037 791.979)" opacity="0.53">
        <rect id="Rectangle_8-2" data-name="Rectangle 8" width="40.021" height="10.175" transform="translate(0 14.923)" fill="#008e9c"/>
        <rect id="Rectangle_9-2" data-name="Rectangle 9" width="40.021" height="10.175" transform="translate(25.098) rotate(90)" fill="#008e9c"/>
      </g>
      <g id="Group_12" data-name="Group 12" transform="translate(752 206)" opacity="0.39">
        <rect id="Rectangle_8-3" data-name="Rectangle 8" width="30.407" height="7.731" transform="translate(98 191.338)" fill="#fff"/>
        <rect id="Rectangle_9-3" data-name="Rectangle 9" width="30.407" height="7.731" transform="translate(117.069 180) rotate(90)" fill="#fff"/>
      </g>
      <g id="Group_13" data-name="Group 13" transform="translate(795 111)" opacity="0.99">
        <rect id="Rectangle_8-4" data-name="Rectangle 8" width="33.321" height="8.471" transform="translate(98 192.425)" fill="#fff"/>
        <rect id="Rectangle_9-4" data-name="Rectangle 9" width="33.321" height="8.471" transform="translate(118.896 180) rotate(90)" fill="#fff"/>
      </g>
      <g id="Group_14" data-name="Group 14" transform="translate(124 658.999)" opacity="0.19">
        <rect id="Rectangle_8-5" data-name="Rectangle 8" width="60.799" height="15.457" transform="translate(0 22.671)" fill="#008e9c"/>
        <rect id="Rectangle_9-5" data-name="Rectangle 9" width="60.799" height="15.457" transform="translate(38.128) rotate(90)" fill="#008e9c"/>
      </g>
      <g id="Group_15" data-name="Group 15" transform="translate(732 147)" opacity="0.99">
        <rect id="Rectangle_8-6" data-name="Rectangle 8" width="18.211" height="4.63" transform="translate(98 186.79)" fill="#fff"/>
        <rect id="Rectangle_9-6" data-name="Rectangle 9" width="18.211" height="4.63" transform="translate(109.42 180) rotate(90)" fill="#fff"/>
      </g>
    </g>
  </g>
</svg>
