<svg xmlns="http://www.w3.org/2000/svg" width="602.211" height="91.973" viewBox="0 0 602.211 91.973">
  <g id="Group_9" data-name="Group 9" transform="translate(-284 -156)">
    <g id="LOGO" transform="translate(-53 -74.76)">
      <text id="Semato-Med" transform="translate(337 301.029)" fill="#fff" font-size="72" font-family="Montserrat-Bold, Montserrat" font-weight="700"><tspan x="0" y="0">Semato</tspan><tspan y="0" font-family="Montserrat-Medium, Montserrat" font-weight="500">-Med</tspan></text>
    </g>
    <g id="lifeline-in-a-heart-outline" transform="translate(770 146.197)">
      <path id="Path_9" data-name="Path 9" d="M116.211,41.039a30.444,30.444,0,0,1-1.592,9.7C109.682,73.072,67,100.09,65.183,101.24a3.5,3.5,0,0,1-1.853.537,3.351,3.351,0,0,1-1.86-.537A236.88,236.88,0,0,1,36.762,82.9a3.466,3.466,0,0,1,4.5-5.275A238.928,238.928,0,0,0,63.347,94.2c12.819-8.358,41.12-29.622,44.589-45.3a24.715,24.715,0,0,0,1.315-7.847A24.449,24.449,0,0,0,96.6,19.637,24.931,24.931,0,0,0,66,25.447a3.59,3.59,0,0,1-5.34,0,24.963,24.963,0,0,0-30.6-5.82A24.439,24.439,0,0,0,17.377,41.033a24.13,24.13,0,0,0,1.231,7.515,27.072,27.072,0,0,0,2.751,6.844H41.578l6.944-15.958a3.456,3.456,0,0,1,6.537.582l5.112,21.611,6.612-10.843a3.451,3.451,0,0,1,2.956-1.659H82.288a3.464,3.464,0,0,1,0,6.929h-10.6L61.722,72.417a3.453,3.453,0,0,1-2.946,1.666,3.594,3.594,0,0,1-.541-.041,3.471,3.471,0,0,1-2.83-2.618L50.734,51.739l-3.691,8.5a3.451,3.451,0,0,1-3.18,2.083H3.464a3.464,3.464,0,1,1,0-6.928H13.622a30.1,30.1,0,0,1-1.664-5,29.2,29.2,0,0,1-1.49-9.356A31.36,31.36,0,0,1,26.721,13.557a32.054,32.054,0,0,1,36.624,4.62,32.015,32.015,0,0,1,36.606-4.62A31.385,31.385,0,0,1,116.211,41.039Z" fill="#fff"/>
    </g>
  </g>
</svg>
