<svg xmlns="http://www.w3.org/2000/svg" width="20" height="22" viewBox="0 0 20 22">
  <g id="Group_72" data-name="Group 72" transform="translate(-142 -410)">
    <path id="Path_14" data-name="Path 14" d="M20,3H19V1H17V3H7V1H5V3H4A2.006,2.006,0,0,0,2,5V21a2.006,2.006,0,0,0,2,2H20a2.006,2.006,0,0,0,2-2V5A2.006,2.006,0,0,0,20,3Zm0,18H4V8H20Z" transform="translate(140 409)" fill="#fff"/>
    <g id="Group_24" data-name="Group 24" transform="translate(50 19)">
      <rect id="Rectangle_34" data-name="Rectangle 34" width="1.77" height="8.259" transform="translate(100.744 400)" fill="#fff"/>
      <rect id="Rectangle_35" data-name="Rectangle 35" width="1.77" height="8.259" transform="translate(105.759 403.244) rotate(90)" fill="#fff"/>
    </g>
  </g>
</svg>
