<svg xmlns="http://www.w3.org/2000/svg" width="19.275" height="21.416" viewBox="0 0 19.275 21.416">
  <path id="Path_16" data-name="Path 16" d="M9.425,11.637H7.283v2.142H9.425Zm4.283,0H11.566v2.142h2.142Zm4.283,0H15.85v2.142h2.142Zm2.142-7.5H19.062V2H16.921V4.142H8.354V2H6.212V4.142H5.142A2.132,2.132,0,0,0,3.011,6.283L3,21.275a2.141,2.141,0,0,0,2.142,2.142H20.133a2.148,2.148,0,0,0,2.142-2.142V6.283A2.148,2.148,0,0,0,20.133,4.142Zm0,17.133H5.142V9.5H20.133Z" transform="translate(-3 -2)" fill="#fff"/>
</svg>
